<?xml version="1.0" encoding="UTF-8"?>
<svg xmlns="http://www.w3.org/2000/svg" version="1.1" width="500" height="500" viewBox="0 0 500 500"><rect x="0" y="0" width="500" height="500" fill="#ffffff"/><g transform="scale(17.241)"><g transform="translate(0,0)"><g><g transform="translate(3.5,3.5)"><path fill-rule="evenodd" d="M-3.5 -3.5L3.5 -3.5L3.5 3.5L-3.5 3.5ZM-2.5 -2.5L-2.5 2.5L2.5 2.5L2.5 -2.5Z" fill="#000000"/><path fill-rule="evenodd" d="M-1.5 -1.5L1.5 -1.5L1.5 1.5L-1.5 1.5Z" fill="#000000"/></g></g><g><g transform="translate(25.5,3.5)"><g transform="rotate(90)"><path fill-rule="evenodd" d="M-3.5 -3.5L3.5 -3.5L3.5 3.5L-3.5 3.5ZM-2.5 -2.5L-2.5 2.5L2.5 2.5L2.5 -2.5Z" fill="#000000"/><path fill-rule="evenodd" d="M-1.5 -1.5L1.5 -1.5L1.5 1.5L-1.5 1.5Z" fill="#000000"/></g></g></g><g><g transform="translate(3.5,25.5)"><g transform="rotate(-90)"><path fill-rule="evenodd" d="M-3.5 -3.5L3.5 -3.5L3.5 3.5L-3.5 3.5ZM-2.5 -2.5L-2.5 2.5L2.5 2.5L2.5 -2.5Z" fill="#000000"/><path fill-rule="evenodd" d="M-1.5 -1.5L1.5 -1.5L1.5 1.5L-1.5 1.5Z" fill="#000000"/></g></g></g><path fill-rule="evenodd" d="M9 0L9 1L8 1L8 2L9 2L9 3L8 3L8 4L9 4L9 5L8 5L8 7L9 7L9 8L6 8L6 9L7 9L7 10L6 10L6 11L5 11L5 12L4 12L4 11L3 11L3 9L4 9L4 10L5 10L5 8L0 8L0 9L1 9L1 10L0 10L0 15L1 15L1 11L2 11L2 12L3 12L3 13L8 13L8 14L9 14L9 16L10 16L10 18L9 18L9 17L8 17L8 15L7 15L7 14L5 14L5 15L7 15L7 16L6 16L6 17L7 17L7 18L6 18L6 19L3 19L3 18L4 18L4 17L5 17L5 16L4 16L4 17L3 17L3 15L4 15L4 14L3 14L3 15L2 15L2 16L0 16L0 21L1 21L1 18L2 18L2 20L4 20L4 21L5 21L5 20L6 20L6 21L8 21L8 23L11 23L11 24L13 24L13 25L14 25L14 26L13 26L13 27L11 27L11 26L12 26L12 25L11 25L11 26L10 26L10 29L11 29L11 28L12 28L12 29L17 29L17 28L15 28L15 27L14 27L14 26L16 26L16 27L19 27L19 28L22 28L22 29L26 29L26 27L28 27L28 28L29 28L29 27L28 27L28 26L26 26L26 23L27 23L27 25L29 25L29 23L27 23L27 22L28 22L28 20L29 20L29 19L28 19L28 18L29 18L29 17L28 17L28 18L26 18L26 15L27 15L27 16L29 16L29 15L27 15L27 14L26 14L26 13L25 13L25 11L24 11L24 10L23 10L23 11L18 11L18 10L19 10L19 8L20 8L20 7L21 7L21 4L20 4L20 7L19 7L19 6L18 6L18 5L17 5L17 4L16 4L16 3L15 3L15 2L18 2L18 4L19 4L19 3L21 3L21 2L18 2L18 1L16 1L16 0L15 0L15 2L14 2L14 1L13 1L13 0L12 0L12 2L9 2L9 1L11 1L11 0ZM20 0L20 1L21 1L21 0ZM12 2L12 3L9 3L9 4L11 4L11 5L9 5L9 7L10 7L10 6L11 6L11 7L12 7L12 6L13 6L13 8L16 8L16 10L18 10L18 9L17 9L17 8L18 8L18 6L17 6L17 7L16 7L16 6L15 6L15 7L14 7L14 6L13 6L13 5L14 5L14 2ZM12 4L12 5L11 5L11 6L12 6L12 5L13 5L13 4ZM15 4L15 5L16 5L16 4ZM11 8L11 9L12 9L12 8ZM21 8L21 9L20 9L20 10L22 10L22 8ZM23 8L23 9L24 9L24 8ZM25 8L25 10L26 10L26 12L27 12L27 10L28 10L28 8L27 8L27 10L26 10L26 8ZM8 9L8 11L9 11L9 9ZM13 9L13 10L10 10L10 14L11 14L11 15L13 15L13 16L11 16L11 18L10 18L10 19L12 19L12 20L11 20L11 21L12 21L12 20L13 20L13 22L11 22L11 23L13 23L13 24L14 24L14 23L15 23L15 24L16 24L16 26L18 26L18 25L20 25L20 24L19 24L19 23L20 23L20 20L22 20L22 19L23 19L23 20L24 20L24 19L25 19L25 21L26 21L26 22L25 22L25 23L26 23L26 22L27 22L27 21L26 21L26 20L28 20L28 19L25 19L25 16L24 16L24 15L26 15L26 14L24 14L24 12L19 12L19 15L17 15L17 14L18 14L18 13L16 13L16 15L15 15L15 14L14 14L14 12L18 12L18 11L13 11L13 10L15 10L15 9ZM6 11L6 12L7 12L7 11ZM11 11L11 12L12 12L12 13L13 13L13 11ZM28 11L28 12L29 12L29 11ZM8 12L8 13L9 13L9 12ZM20 13L20 14L21 14L21 15L19 15L19 16L21 16L21 15L22 15L22 16L23 16L23 15L24 15L24 14L23 14L23 15L22 15L22 13ZM13 14L13 15L14 15L14 16L13 16L13 17L14 17L14 16L15 16L15 19L14 19L14 18L12 18L12 19L13 19L13 20L15 20L15 23L19 23L19 20L20 20L20 19L22 19L22 18L23 18L23 19L24 19L24 18L23 18L23 17L22 17L22 18L21 18L21 17L18 17L18 18L17 18L17 15L16 15L16 16L15 16L15 15L14 15L14 14ZM2 17L2 18L3 18L3 17ZM8 18L8 19L6 19L6 20L8 20L8 21L9 21L9 22L10 22L10 20L9 20L9 18ZM16 18L16 19L15 19L15 20L16 20L16 19L17 19L17 18ZM19 18L19 19L18 19L18 20L17 20L17 21L16 21L16 22L18 22L18 20L19 20L19 19L20 19L20 18ZM21 21L21 24L24 24L24 21ZM13 22L13 23L14 23L14 22ZM22 22L22 23L23 23L23 22ZM8 24L8 29L9 29L9 24ZM22 25L22 26L23 26L23 25ZM19 26L19 27L21 27L21 26ZM24 26L24 27L22 27L22 28L25 28L25 26ZM13 27L13 28L14 28L14 27Z" fill="#000000"/></g></g></svg>
